<svg width="56" height="55" viewBox="0 0 56 55" fill="none" xmlns="http://www.w3.org/2000/svg">
<g filter="url(#filter0_d)">
<path d="M37.2308 1.25319C29.2646 1.25319 22.8068 4.67197 22.8068 8.89538C22.8068 13.1188 29.2664 16.5393 37.2308 16.5393C45.1969 16.5393 51.6548 13.1188 51.6548 8.89538C51.6548 4.67197 45.1951 1.25142 37.2308 1.25142V1.25319ZM51.6548 11.1657C51.6511 15.3891 45.1969 18.8097 37.2308 18.8097C29.2868 18.8097 22.8437 15.4263 22.8068 11.2224V14.2123C22.8068 16.0165 24.0104 17.6683 25.9821 18.9763C27.976 19.4973 29.752 20.2204 31.2308 21.1349C33.064 21.5816 35.08 21.8545 37.2308 21.8545C45.1969 21.8545 51.6548 18.4357 51.6548 14.2123V11.1657ZM51.6548 16.4826C51.6548 20.706 45.1969 24.1266 37.2308 24.1266C36.2615 24.1266 35.32 24.0575 34.4043 23.96C35.1269 24.8942 35.6198 25.9733 35.8461 27.1165C36.3058 27.1413 36.76 27.1714 37.2308 27.1714C45.1969 27.1714 51.6548 23.7526 51.6548 19.5292V16.4826ZM18.7692 20.7468C10.8031 20.7468 4.34521 24.1674 4.34521 28.3908C4.34521 32.6142 10.8049 36.0347 18.7692 36.0347C26.7354 36.0347 33.1932 32.6142 33.1932 28.3908C33.1932 24.1674 26.7335 20.7468 18.7692 20.7468ZM51.6548 21.7996C51.6511 26.023 45.1969 29.4435 37.2308 29.4435C36.7674 29.4435 36.2984 29.4116 35.8461 29.3868C35.8258 29.5197 35.8148 29.697 35.7889 29.8299C35.8812 30.0975 35.9606 30.3616 35.9606 30.6629V32.4352C36.3797 32.4547 36.8006 32.4883 37.2308 32.4883C45.1969 32.4883 51.6548 29.0696 51.6548 24.8462V21.7996ZM51.6548 27.1165C51.6511 31.3399 45.1969 34.7604 37.2308 34.7604C36.7674 34.7604 36.2984 34.7285 35.8461 34.7037C35.8258 34.8367 35.8148 35.0139 35.7889 35.1468C35.8812 35.4127 35.9606 35.6785 35.9606 35.9798V37.7521C36.3797 37.7716 36.8006 37.8053 37.2308 37.8053C45.1969 37.8053 51.6548 34.3865 51.6548 30.1631V27.1165ZM33.1932 30.6611C33.1895 34.8845 26.7354 38.3051 18.7692 38.3051C10.8252 38.3051 4.38214 34.9217 4.34521 30.716V33.7077C4.34521 37.9311 10.8012 41.3517 18.7692 41.3517C26.7372 41.3517 33.1932 37.9311 33.1932 33.7077V30.6611ZM33.1932 35.978C33.1895 40.2014 26.7354 43.622 18.7692 43.622C10.8252 43.622 4.38214 40.2386 4.34521 36.033V39.0246C4.34521 43.248 10.8012 46.6686 18.7692 46.6686C26.7372 46.6686 33.1932 43.248 33.1932 39.0246V35.978Z" fill="#FBC02D"/>
</g>
<defs>
<filter id="filter0_d" x="0" y="0.919998" width="56" height="54.08" filterUnits="userSpaceOnUse" color-interpolation-filters="sRGB">
<feFlood flood-opacity="0" result="BackgroundImageFix"/>
<feColorMatrix in="SourceAlpha" type="matrix" values="0 0 0 0 0 0 0 0 0 0 0 0 0 0 0 0 0 0 127 0"/>
<feOffset dy="4"/>
<feGaussianBlur stdDeviation="2"/>
<feColorMatrix type="matrix" values="0 0 0 0 0 0 0 0 0 0 0 0 0 0 0 0 0 0 0.25 0"/>
<feBlend mode="normal" in2="BackgroundImageFix" result="effect1_dropShadow"/>
<feBlend mode="normal" in="SourceGraphic" in2="effect1_dropShadow" result="shape"/>
</filter>
</defs>
</svg>
