<svg width="32" height="32" viewBox="0 0 32 32" fill="none" xmlns="http://www.w3.org/2000/svg">
<g filter="url(#filter0_d)">
<path d="M7.51469 3.51469C9.78123 1.24823 12.7947 0 16 0C19.2053 0 22.2188 1.24823 24.4853 3.51469C26.7518 5.78123 28 8.79469 28 12C28 15.2053 26.7518 18.2188 24.4853 20.4853C22.2188 22.7518 19.2053 24 16 24C12.7947 24 9.78123 22.7518 7.51469 20.4853C5.24824 18.2188 4 15.2053 4 12C4 8.79469 5.24824 5.78123 7.51469 3.51469ZM16 22.5938C21.8414 22.5938 26.5938 17.8414 26.5938 12C26.5938 6.15858 21.8414 1.40625 16 1.40625C10.1586 1.40625 5.40625 6.15858 5.40625 12C5.40625 17.8414 10.1586 22.5938 16 22.5938Z" fill="#8E6CFE"/>
<path d="M12.9058 4.91351C13.2617 4.75784 13.6762 4.92026 13.8317 5.27604C13.9873 5.63182 13.825 6.04639 13.4692 6.20197C11.1624 7.21062 9.67188 9.48645 9.67188 12C9.67188 15.4894 12.5107 18.3282 16 18.3282C19.4893 18.3282 22.3281 15.4894 22.3281 12C22.3281 9.48645 20.8376 7.21062 18.5308 6.20201C18.175 6.04643 18.0127 5.63187 18.1683 5.27609C18.3239 4.92026 18.7384 4.75789 19.0942 4.91356C21.913 6.146 23.7344 8.92765 23.7344 12C23.7344 16.2648 20.2647 19.7344 16 19.7344C11.7353 19.7344 8.26562 16.2648 8.26562 12C8.26562 8.92765 10.087 6.146 12.9058 4.91351Z" fill="#8E6CFE"/>
<path d="M16 10.3594C15.6117 10.3594 15.2969 10.0446 15.2969 9.65625V4.03125C15.2969 3.64294 15.6117 3.32812 16 3.32812C16.3883 3.32812 16.7031 3.64294 16.7031 4.03125V9.65625C16.7031 10.0446 16.3883 10.3594 16 10.3594Z" fill="#8E6CFE"/>
</g>
<defs>
<filter id="filter0_d" x="0" y="0" width="32" height="32" filterUnits="userSpaceOnUse" color-interpolation-filters="sRGB">
<feFlood flood-opacity="0" result="BackgroundImageFix"/>
<feColorMatrix in="SourceAlpha" type="matrix" values="0 0 0 0 0 0 0 0 0 0 0 0 0 0 0 0 0 0 127 0"/>
<feOffset dy="4"/>
<feGaussianBlur stdDeviation="2"/>
<feColorMatrix type="matrix" values="0 0 0 0 0 0 0 0 0 0 0 0 0 0 0 0 0 0 0.25 0"/>
<feBlend mode="normal" in2="BackgroundImageFix" result="effect1_dropShadow"/>
<feBlend mode="normal" in="SourceGraphic" in2="effect1_dropShadow" result="shape"/>
</filter>
</defs>
</svg>
